0
SECTION
2
HEADER
9
$INSUNITS
70
4
9
$ACADVER
1
AC1014
9
$HANDSEED
5
FFFF
0
ENDSEC
0
SECTION
2
TABLES
0
TABLE
2
VPORT
5
8
100
AcDbSymbolTable
0
ENDTAB
0
TABLE
2
LTYPE
5
5
100
AcDbSymbolTable
0
LTYPE
5
14
100
AcDbSymbolTableRecord
100
AcDbLinetypeTableRecord
2
BYBLOCK
70
0
0
LTYPE
5
15
100
AcDbSymbolTableRecord
100
AcDbLinetypeTableRecord
2
BYLAYER
70
0
0
ENDTAB
0
TABLE
2
LAYER
5
2
100
AcDbSymbolTable
70
2
0
LAYER
5
50
100
AcDbSymbolTableRecord
100
AcDbLayerTableRecord
2
0
70
0
6
CONTINUOUS
0
ENDTAB
0
TABLE
2
STYLE
5
3
100
AcDbSymbolTable
70
1
0
STYLE
5
11
100
AcDbSymbolTableRecord
100
AcDbTextStyleTableRecord
2
STANDARD
70
0
0
ENDTAB
0
TABLE
2
VIEW
5
6
100
AcDbSymbolTable
70
0
0
ENDTAB
0
TABLE
2
UCS
5
7
100
AcDbSymbolTable
70
0
0
ENDTAB
0
TABLE
2
APPID
5
9
100
AcDbSymbolTable
70
2
0
APPID
5
12
100
AcDbSymbolTableRecord
100
AcDbRegAppTableRecord
2
ACAD
70
0
0
ENDTAB
0
TABLE
2
DIMSTYLE
5
A
100
AcDbSymbolTable
70
1
0
ENDTAB
0
TABLE
2
BLOCK_RECORD
5
1
100
AcDbSymbolTable
70
1
0
BLOCK_RECORD
5
1F
100
AcDbSymbolTableRecord
100
AcDbBlockTableRecord
2
*MODEL_SPACE
0
BLOCK_RECORD
5
1B
100
AcDbSymbolTableRecord
100
AcDbBlockTableRecord
2
*PAPER_SPACE
0
ENDTAB
0
ENDSEC
0
SECTION
2
BLOCKS
0
BLOCK
5
20
100
AcDbEntity
100
AcDbBlockBegin
2
*MODEL_SPACE
0
ENDBLK
5
21
100
AcDbEntity
100
AcDbBlockEnd
0
BLOCK
5
1C
100
AcDbEntity
100
AcDbBlockBegin
2
*PAPER_SPACE
0
ENDBLK
5
1D
100
AcDbEntity
100
AcDbBlockEnd
0
ENDSEC
0
SECTION
2
ENTITIES
0
LWPOLYLINE
5
100
100
AcDbEntity
8
0
100
AcDbPolyline
90
10
70
1
43
0.0
10
-226.33500000000009
20
68.672710468926169
10
-218.91268519809731
20
68.672710468926169
10
-212.58778762020683
20
69.56164169195317
42
0.41420177900798882
10
-212.1622395118159
20
70.126343995736832
10
-213.89801406644204
20
82.4802827714865
42
0.4142213576965505
10
-214.4627323473934
20
82.905848947976324
10
-218.51336159785819
20
82.33661046892621
10
-226.33500000000009
20
82.33661046892621
42
0.41421356237309503
10
-226.83500000000009
20
81.83661046892621
10
-226.83500000000009
20
69.172710468926169
42
0.41421356237309503
0
LWPOLYLINE
5
101
100
AcDbEntity
8
0
100
AcDbPolyline
90
8
70
1
43
0.0
10
-63.402286574612141
20
69.706566107940077
10
-54.338591518946316
20
68.432654092254069
42
0.4557292851972517
10
-53.768999999999991
20
68.927787428327022
10
-53.768999999999998
20
82.055158891523035
42
0.37388467948480392
10
-54.199413449519966
20
82.550292925893828
10
-61.453315711561444
20
83.569762404650717
42
0.41419971535258815
10
-62.018033006021369
20
83.144238329092673
10
-63.827825799645723
20
70.271309402825764
42
0.41422447043845639
0
LWPOLYLINE
5
102
100
AcDbEntity
8
0
100
AcDbPolyline
90
4
70
1
43
0.0
10
-134.88386079108949
20
17.481768811780807
42
-0.99999999999999989
10
-135.49298441578759
20
18.274844098140584
42
-0.33965060253027413
10
-130.01161792028114
20
18.275417038849792
42
-0.99999999999999989
10
-130.62057573902891
20
17.482214432332412
42
0.33965060253027823
0
CIRCLE
5
103
100
AcDbEntity
8
0
100
AcDbCircle
10
-132.75192810464611
20
14.706005309521595
30
0
40
1.25
210
0
220
-0
230
1
0
CIRCLE
5
104
100
AcDbEntity
8
0
100
AcDbCircle
10
-230.60699999999969
20
87.934550468926162
30
0
40
1.25
210
0
220
-0
230
1
0
CIRCLE
5
105
100
AcDbEntity
8
0
100
AcDbCircle
10
-264.74800000000022
20
3.9999999999999982
30
0
40
1.25
210
0
220
-0
230
1
0
CIRCLE
5
106
100
AcDbEntity
8
0
100
AcDbCircle
10
-50.000000000000036
20
87.934550468926105
30
0
40
1.25
210
0
220
-0
230
1
0
CIRCLE
5
107
100
AcDbEntity
8
0
100
AcDbCircle
10
-16.050000000000008
20
4.0000000000000044
30
0
40
1.25
210
0
220
-0
230
1
0
LWPOLYLINE
5
108
100
AcDbEntity
8
0
100
AcDbPolyline
90
8
70
1
43
0.0
10
-9.5500000000000114
20
24.465600468926159
10
-22.550000000000011
20
24.465600468926159
42
0.41421356237309503
10
-23.050000000000011
20
23.965600468926162
10
-23.050000000000011
20
10.963500468926156
42
0.41421356237309503
10
-22.550000000000011
20
10.463500468926156
10
-9.5500000000000131
20
10.463500468926139
42
0.4142135623730957
10
-9.0500000000000114
20
10.963500468926139
10
-9.0500000000000114
20
23.965600468926162
42
0.41421356237309503
0
LWPOLYLINE
5
109
100
AcDbEntity
8
0
100
AcDbPolyline
90
8
70
1
43
0.0
10
-258.24800000000027
20
24.616010468926248
10
-271.24800000000016
20
24.616010468926248
42
0.41421356237309503
10
-271.7480000000001
20
24.116010468926248
10
-271.7480000000001
20
11.11531046892614
42
0.41421356237309503
10
-271.2480000000001
20
10.61531046892614
10
-258.24800000000027
20
10.61531046892614
42
0.41421356237309503
10
-257.74800000000022
20
11.11531046892614
10
-257.74800000000022
20
24.116010468926248
42
0.41421356237309503
0
LWPOLYLINE
5
110
100
AcDbEntity
8
0
100
AcDbPolyline
90
8
70
1
43
0.0
10
-24.669000000000011
20
62.445900468926148
10
-24.669000000000011
20
49.445200468926146
42
0.41421356237309503
10
-24.169000000000015
20
48.945200468926146
10
-11.16900000000002
20
48.945200468926146
42
0.41421356237309503
10
-10.66900000000002
20
49.445200468926139
10
-10.66900000000002
20
62.445900468926148
42
0.41421356237309503
10
-11.16900000000002
20
62.945900468926148
10
-24.169000000000015
20
62.945900468926148
42
0.41421356237309503
0
LWPOLYLINE
5
111
100
AcDbEntity
8
0
100
AcDbPolyline
90
8
70
1
43
0.0
10
-220.7180000000001
20
63.097710468926152
10
-233.71900000000025
20
63.097710468926152
42
0.41421356237309503
10
-234.21900000000022
20
62.597710468926159
10
-234.21900000000022
20
49.597010468926243
42
0.41421356237309503
10
-233.71900000000022
20
49.097010468926229
10
-220.7180000000001
20
49.097010468926229
42
0.41421356237309503
10
-220.2180000000001
20
49.597010468926229
10
-220.2180000000001
20
62.597710468926152
42
0.41421356237309503
0
LWPOLYLINE
5
112
100
AcDbEntity
8
0
100
AcDbPolyline
90
8
70
1
43
0.0
10
-161.17057289706105
20
19.051831633837288
10
-162.97942302738386
20
31.924660299996614
42
0.41422214093718263
10
-163.54414813087996
20
32.350218993905926
10
-176.41688087301918
20
30.540997867541947
42
0.41420498386104759
10
-176.84242710293898
20
29.976289304015147
10
-175.0335769726162
20
17.103460637855818
42
0.41422214093718085
10
-174.4688518691201
20
16.677901943946505
10
-161.59611912698085
20
18.487123070310481
42
0.41420498386104854
0
LWPOLYLINE
5
113
100
AcDbEntity
8
0
100
AcDbPolyline
90
8
70
1
43
0.0
10
-50.363000000000035
20
48.945200468926146
10
-37.363000000000049
20
48.945200468926146
42
0.41421356237309503
10
-36.863000000000049
20
49.445200468926139
10
-36.863000000000049
20
62.445900468926148
42
0.41421356237309503
10
-37.363000000000049
20
62.945900468926148
10
-50.363000000000028
20
62.945900468926148
42
0.41421356237309503
10
-50.863000000000028
20
62.445900468926148
10
-50.863000000000028
20
49.445200468926146
42
0.41421356237309503
0
LWPOLYLINE
5
114
100
AcDbEntity
8
0
100
AcDbPolyline
90
8
70
1
43
0.0
10
-71.289805208095942
20
51.577907455903507
10
-58.416107399678197
20
49.768681200138843
42
0.41419763721060721
10
-57.85139234880576
20
50.194204084614199
10
-56.041613051715899
20
63.066758440538877
42
0.41422036042657978
10
-56.467143643969429
20
63.631502028401243
10
-69.339912884123322
20
65.44100685551571
42
0.41418692058704232
10
-69.904638647040741
20
65.015519685444289
10
-71.715346512394461
20
52.142686758169816
42
0.41424933207746523
0
LWPOLYLINE
5
115
100
AcDbEntity
8
0
100
AcDbPolyline
90
8
70
1
43
0.0
10
-149.67165270203211
20
39.9045911733064
10
-151.48236824912888
20
52.777478712258699
42
0.41415791539219449
10
-152.04704497737643
20
53.202972772580196
10
-164.91984382161306
20
51.394763785392584
42
0.41422369899115463
10
-165.34542954698514
20
50.830056697968551
10
-163.53657114399289
20
37.955869157781194
42
0.41422660803376232
10
-162.9718444103674
20
37.530303667448941
10
-150.09718842202625
20
39.33981265587159
42
0.41424602863923204
0
LWPOLYLINE
5
116
100
AcDbEntity
8
0
100
AcDbPolyline
90
8
70
1
43
0.0
10
-107.66436875629751
20
37.957078611650886
10
-105.85365320955083
20
50.831266149019882
42
0.41427716710729118
10
-106.27924943379044
20
51.396046134096743
10
-119.15390246905213
20
53.203976134793045
42
0.4141873159705744
10
-119.71856870036304
20
52.778409170156799
10
-121.52742710293899
20
39.905521633837253
42
0.41420498386103516
10
-121.10188087301916
20
39.340813070310453
10
-108.2290849819282
20
37.531583068564693
42
0.41418478454619961
0
LWPOLYLINE
5
117
100
AcDbEntity
8
0
100
AcDbPolyline
90
8
70
1
43
0.0
10
-219.64600000000007
20
11.11531046892614
10
-219.64600000000007
20
24.117410468926241
42
0.41421356237309503
10
-220.14600000000007
20
24.617410468926234
10
-233.14800000000014
20
24.617410468926249
42
0.41421356237309503
10
-233.64800000000008
20
24.117410468926252
10
-233.64800000000008
20
11.11531046892614
42
0.41421356237309503
10
-233.14800000000008
20
10.61531046892614
10
-220.14600000000007
20
10.61531046892614
42
0.41421356237309503
0
LWPOLYLINE
5
118
100
AcDbEntity
8
0
100
AcDbPolyline
90
8
70
1
43
0.0
10
-239.19600000000008
20
24.616010468926248
10
-252.19600000000014
20
24.616010468926248
42
0.41421356237309503
10
-252.69600000000011
20
24.116010468926248
10
-252.69600000000011
20
11.11531046892614
42
0.41421356237309503
10
-252.19600000000011
20
10.61531046892614
10
-239.19600000000008
20
10.61531046892614
42
0.41421356237309503
10
-238.69600000000008
20
11.11531046892614
10
-238.69600000000008
20
24.116010468926248
42
0.41421356237309503
0
LWPOLYLINE
5
119
100
AcDbEntity
8
0
100
AcDbPolyline
90
8
70
1
43
0.0
10
-126.49954708938475
20
72.969412333260635
10
-128.30747533756596
20
60.096628920556022
42
0.41414726520116335
10
-127.88198729851632
20
59.53196375461949
10
-115.00921018827866
20
57.721064965007891
42
0.41426409187035268
10
-114.44442093634453
20
58.146622668034937
10
-112.63556411701609
20
71.020984651065334
42
0.41420116635261622
10
-113.06111287326594
20
71.585685540590802
10
-125.93481855465085
20
73.395005759876611
42
0.41424172885973226
0
LWPOLYLINE
5
120
100
AcDbEntity
8
0
100
AcDbPolyline
90
8
70
1
43
0.0
10
-201.30436239919973
20
27.042460340871585
10
-214.17394250154476
20
25.210697026055811
42
0.41420498386102733
10
-214.59849928217682
20
24.645244202613569
10
-212.76711107838426
20
11.775597620802436
42
0.41421922921927756
10
-212.20164661416928
20
11.351027704767152
10
-199.33113794502583
20
13.182792645224373
42
0.4142286138678109
10
-198.90658122744532
20
13.748281184391368
10
-200.73889799803629
20
26.617926140561053
42
0.41420142271383642
0
LWPOLYLINE
5
121
100
AcDbEntity
8
0
100
AcDbPolyline
90
8
70
1
43
0.0
10
-267.27100000000007
20
43.357610468926225
10
-267.27100000000007
20
30.355510468926241
42
0.41421356237309503
10
-266.77100000000007
20
29.855510468926241
10
-253.7690000000002
20
29.855510468926241
42
0.41421356237309503
10
-253.26900000000023
20
30.355510468926241
10
-253.26900000000023
20
43.357610468926225
42
0.41421356237309503
10
-253.76900000000023
20
43.857610468926225
10
-266.77100000000007
20
43.857610468926225
42
0.41421356237309503
0
LWPOLYLINE
5
122
100
AcDbEntity
8
0
100
AcDbPolyline
90
8
70
1
43
0.0
10
-42.100000000000023
20
23.965600468926162
10
-42.100000000000023
20
10.963500468926156
42
0.41421356237309503
10
-41.60000000000003
20
10.463500468926156
10
-28.600000000000023
20
10.463500468926156
42
0.41421356237309503
10
-28.100000000000023
20
10.963500468926156
10
-28.100000000000023
20
23.965600468926162
42
0.41421356237309503
10
-28.600000000000023
20
24.465600468926159
10
-41.600000000000023
20
24.465600468926159
42
0.41421356237309503
0
LWPOLYLINE
5
123
100
AcDbEntity
8
0
100
AcDbPolyline
90
8
70
1
43
0.0
10
-212.7848253032206
20
49.767395638721048
10
-199.9101653789501
20
51.576626608533438
42
0.4142315251931673
10
-199.4846142280191
20
52.141371579470295
10
-201.29439292629101
20
65.0142002464858
42
0.41420142271381338
10
-201.85911310705904
20
65.439723916391117
10
-214.73191589548495
20
63.630492945247134
42
0.41418426547716186
10
-215.15746704575318
20
63.065819406768718
10
-213.34954548332581
20
50.19299074108482
42
0.41423703677270635
0
LWPOLYLINE
5
124
100
AcDbEntity
8
0
100
AcDbPolyline
90
8
70
1
43
0.0
10
-180.03302572321215
20
16.401982252780634
10
-181.83583092493436
20
29.277057348695422
42
0.41420342582768022
10
-182.40031814281633
20
29.702894027036354
10
-195.2739250441833
20
27.900748674951412
42
0.41420269142045518
10
-195.69978143206569
20
27.336277436577404
10
-193.89790484870719
20
14.461109919943663
42
0.41422359502309486
10
-193.33341407647222
20
14.035237527312169
10
-180.45887855674155
20
15.837475300116084
42
0.41422453737743237
0
LWPOLYLINE
5
125
100
AcDbEntity
8
0
100
AcDbPolyline
90
8
70
1
43
0.0
10
-234.79100000000011
20
68.837210468926173
10
-234.79100000000011
20
81.83661046892621
42
0.41421356237309503
10
-235.29100000000011
20
82.33661046892621
10
-248.29300000000012
20
82.33661046892621
42
0.41421356237309503
10
-248.79300000000006
20
81.83661046892621
10
-248.79300000000006
20
68.837210468926173
42
0.41421356237309503
10
-248.29300000000006
20
68.337210468926173
10
-235.29100000000005
20
68.337210468926173
42
0.41421356237309503
0
LWPOLYLINE
5
126
100
AcDbEntity
8
0
100
AcDbPolyline
90
8
70
1
43
0.0
10
-119.04080865608888
20
19.801161576417815
10
-106.16590799291991
20
18.001275143009835
42
0.41420258745392824
10
-105.60150013777672
20
18.427215323811129
10
-103.80105114118535
20
31.302621567630698
42
0.41422453737743259
10
-104.22700728263194
20
31.867050572019693
10
-117.10190794580099
20
33.666937005427648
42
0.41420258745393096
10
-117.66631580094418
20
33.24099682462635
10
-119.46676479753548
20
20.365590580806803
42
0.41422453737742981
0
LWPOLYLINE
5
127
100
AcDbEntity
8
0
100
AcDbPolyline
90
8
70
1
43
0.0
10
-85.144812705115044
20
72.762501366011193
10
-72.2711148965017
20
70.953089396171052
42
0.41420265439186366
10
-71.706392633575476
20
71.378612773431286
10
-69.896612351616724
20
84.251452705099723
42
0.41422363027893638
10
-70.322150156379053
20
84.816195800362678
10
-83.194919396342158
20
86.625514913402299
42
0.41418248558845594
10
-83.759638085137453
20
86.200027251357056
10
-85.570346935746443
20
73.327280176489168
42
0.41424548001265998
0
LWPOLYLINE
5
128
100
AcDbEntity
8
0
100
AcDbPolyline
90
8
70
1
43
0.0
10
-274.70099999999991
20
62.597710468926159
10
-274.70099999999979
20
49.597010468926243
42
0.41421356237309503
10
-274.20099999999979
20
49.097010468926229
10
-261.19900000000007
20
49.097010468926229
42
0.41421356237309503
10
-260.69900000000007
20
49.597010468926229
10
-260.69900000000007
20
62.597710468926152
42
0.41421356237309503
10
-261.19900000000007
20
63.097710468926152
10
-274.20099999999985
20
63.097710468926152
42
0.41421356237309503
0
LWPOLYLINE
5
129
100
AcDbEntity
8
0
100
AcDbPolyline
90
8
70
1
43
0.0
10
-180.62157192943218
20
54.791474747987856
10
-182.4304274726484
20
67.665641934292566
42
0.41423243195593973
10
-182.99516405144075
20
68.091206040805091
10
-195.86789138026285
20
66.28170710510031
42
0.41419964179832769
10
-196.29342689545132
20
65.716998541955803
10
-194.48457135144085
20
52.844409920031516
42
0.41419226145337701
10
-193.91989549052764
20
52.418845813364143
10
-181.04716816249979
20
54.226766184688522
42
0.41422991473409815
0
LWPOLYLINE
5
130
100
AcDbEntity
8
0
100
AcDbPolyline
90
8
70
1
43
0.0
10
-88.770571005766811
20
67.666749906681446
10
-90.579427733291539
20
54.792760005541183
42
0.41422719129513441
10
-90.153837226596409
20
54.22805124297053
10
-77.280075767628603
20
52.419837474285572
42
0.41417572251798385
10
-76.71539903387027
20
52.845367248584346
10
-74.905613735658264
20
65.718242860509605
42
0.41422945361428343
10
-75.331161384635735
20
66.282987339316549
10
-88.205851414290848
20
68.092315397216495
42
0.41422188275063893
0
LWPOLYLINE
5
131
100
AcDbEntity
8
0
100
AcDbPolyline
90
20
70
1
43
0.0
10
-150.39215002991909
20
77.28293737903725
42
-0.20366396891034963
10
-151.4564876321802
20
76.643287852816385
10
-153.45154748638231
20
76.363543511121946
42
-0.20343670031828814
10
-154.64967088990471
20
76.684947165850417
42
0.20352501698445105
10
-155.84832757756641
20
77.006275952034429
10
-172.53982996912362
20
74.660044462918307
42
0.20349213363734578
10
-173.60333511517945
20
74.020881871804846
42
-0.20356626006044184
10
-174.66728785000254
20
73.38165643060691
10
-176.66462394557493
20
73.101481902212257
42
-0.20342840277545629
10
-177.86272500289101
20
73.422789090086098
42
0.20355138967482064
10
-179.06156867899193
20
73.743991928917382
10
-180.06378886767567
20
73.602923607883511
42
-0.41426843756321363
10
-180.6286121983652
20
74.028444795487459
10
-182.43805426609387
20
86.901102896673621
42
-0.41420936749925408
10
-182.01252712183205
20
87.465832467696913
10
-150.27416563693185
20
91.927591107630178
42
-0.41423439823792974
10
-149.70942402422634
20
91.502029737598889
10
-147.90050940439292
20
78.627817538326241
42
-0.41427854098630651
10
-148.32618557033504
20
78.063095726607628
10
-149.32790814338091
20
77.922573481169991
42
0.20364811674687663
0
LWPOLYLINE
5
132
100
AcDbEntity
8
0
100
AcDbPolyline
90
8
70
1
43
0.0
10
-22.36000000000001
20
29.703700468926144
10
-9.3580000000000325
20
29.703700468926144
42
0.41421356237309503
10
-8.8580000000000325
20
30.20370046892614
10
-8.8580000000000325
20
43.205800468926142
42
0.41421356237309503
10
-9.3580000000000325
20
43.705800468926142
10
-22.36000000000001
20
43.705800468926142
42
0.41421356237309503
10
-22.86000000000001
20
43.205800468926149
10
-22.86000000000001
20
30.20370046892614
42
0.41421356237309503
0
LWPOLYLINE
5
133
100
AcDbEntity
8
0
100
AcDbPolyline
90
8
70
1
43
0.0
10
-156.18987337351587
20
57.720148923540549
10
-143.31709822470319
20
59.530676008958928
42
0.41419669678080168
10
-142.89160595057251
20
60.09541270257504
10
-144.70139312592084
20
72.968301666439203
42
0.41420058271575327
10
-145.26611188666601
20
73.393825535922105
10
-158.13981560735652
20
71.584505592199832
42
0.41424347217560592
10
-158.56535431015973
20
71.01973318573576
10
-156.75463856293359
20
58.14563708017549
42
0.41421349829664206
0
LWPOLYLINE
5
134
100
AcDbEntity
8
0
100
AcDbPolyline
90
8
70
1
43
0.0
10
-45.813000000000002
20
81.684800468926142
10
-45.813000000000002
20
68.685400468926161
42
0.41421356237309503
10
-45.313000000000009
20
68.185400468926147
10
-32.314000000000014
20
68.185400468926147
42
0.41421356237309503
10
-31.814000000000018
20
68.685400468926147
10
-31.814000000000018
20
81.684800468926142
42
0.41421356237309503
10
-32.314000000000014
20
82.184800468926156
10
-45.313000000000002
20
82.184800468926156
42
0.41421356237309503
0
LWPOLYLINE
5
135
100
AcDbEntity
8
0
100
AcDbPolyline
90
8
70
1
43
0.0
10
-107.63457753394289
20
70.318142733527395
10
-109.44342766422781
20
57.445221210854669
42
0.41420469273555299
10
-109.0178813651528
20
56.880513139478246
10
-96.145147638710569
20
55.071291874773642
42
0.41422184980405735
10
-95.580422604371108
20
55.496850076525675
10
-93.771572474081992
20
68.369585885662104
42
0.41420113134242087
10
-94.197111629996755
20
68.934293956786775
10
-107.06984535644312
20
70.743700935027675
42
0.4142265757769536
0
LWPOLYLINE
5
136
100
AcDbEntity
8
0
100
AcDbPolyline
90
8
70
1
43
0.0
10
-8.0020000000000184
20
68.685400468926147
10
-8.0020000000000202
20
81.684800468926142
42
0.41421356237309503
10
-8.5020000000000202
20
82.184800468926156
10
-21.502000000000013
20
82.184800468926156
42
0.41421356237309503
10
-22.00200000000001
20
81.684800468926142
10
-22.00200000000001
20
68.685400468926161
42
0.41421356237309503
10
-21.502000000000013
20
68.185400468926147
10
-8.5020000000000202
20
68.185400468926147
42
0.41421356237309503
0
LWPOLYLINE
5
137
100
AcDbEntity
8
0
100
AcDbPolyline
90
8
70
1
43
0.0
10
-81.307272368896747
20
14.510801807357739
10
-68.434347650650523
20
12.702002714735656
42
0.41420971000773688
10
-67.869640056374635
20
13.127559710400345
10
-66.060660990636663
20
26.000536481164524
42
0.41420252373973993
10
-66.486198410384773
20
26.565247965193954
10
-79.36098032708108
20
28.374975514173112
42
0.41426894869577635
10
-79.925723623770992
20
27.949347087774253
10
-81.732845491058882
20
15.075441860652996
42
0.41417306876178167
0
LWPOLYLINE
5
138
100
AcDbEntity
8
0
100
AcDbPolyline
90
8
70
1
43
0.0
10
-102.23782458210059
20
36.689599463670767
10
-89.364124798996031
20
34.880094359275517
42
0.4142088034654488
10
-88.799398064894689
20
35.305624137098462
10
-86.989603012523418
20
48.179869136381164
42
0.41421333732556137
10
-87.415131279064695
20
48.744603861888791
10
-100.28790248614308
20
50.554201822528952
42
0.41419336309529764
10
-100.85263279070135
20
50.128707756127085
10
-102.66335641909878
20
37.254369900599464
42
0.41423874598258037
0
LWPOLYLINE
5
139
100
AcDbEntity
8
0
100
AcDbPolyline
90
8
70
1
43
0.0
10
-190.34560740467208
20
72.663219474040403
10
-192.15539270277037
20
85.536002228034903
42
0.41420029144339493
10
-192.72011139428994
20
85.961525605122546
10
-205.59388565064128
20
84.15219574804658
42
0.41420203955410118
10
-206.01943419948714
20
83.587493382359497
10
-204.21057747181635
20
70.713410623058252
42
0.41425117562898262
10
-203.64580878494965
20
70.287851532772336
10
-190.77110595817075
20
72.098481395155019
42
0.4142007435333972
0
LWPOLYLINE
5
140
100
AcDbEntity
8
0
100
AcDbPolyline
90
8
70
1
43
0.0
10
-164.13011090190696
20
70.742525674323886
10
-177.00388663471048
20
68.933195609741716
42
0.41420145741560388
10
-177.42943532182716
20
68.368494228169254
10
-175.62057810212127
20
55.494222252638117
42
0.41425797243398038
10
-175.05579877162455
20
55.068663655769171
10
-162.1810944682972
20
56.879572298563886
42
0.41419482041414224
10
-161.75560648938483
20
57.444309392319788
10
-163.56539227961449
20
70.317002789638366
42
0.41420000016699082
0
LWPOLYLINE
5
141
100
AcDbEntity
8
0
100
AcDbPolyline
90
8
70
1
43
0.0
10
-252.76900000000023
20
49.097010468926229
10
-239.76800000000011
20
49.097010468926207
42
0.41421356237309503
10
-239.26800000000011
20
49.5970104689262
10
-239.26800000000011
20
62.597710468926152
42
0.41421356237309503
10
-239.76800000000011
20
63.097710468926152
10
-252.76900000000026
20
63.097710468926152
42
0.41421356237309503
10
-253.26900000000023
20
62.597710468926159
10
-253.26900000000023
20
49.597010468926221
42
0.41421356237309503
0
LWPOLYLINE
5
142
100
AcDbEntity
8
0
100
AcDbPolyline
90
8
70
1
43
0.0
10
-100.17292715051909
20
17.159619543167349
10
-87.298917551480145
20
15.35262397328631
42
0.41423994811539777
10
-86.73426619531358
20
15.778316219913615
10
-84.928575651365719
20
28.651453004386468
42
0.4141842654771522
10
-85.354224628594096
20
29.216052804897185
10
-98.227305660121914
20
31.023048536025151
42
0.41422214093718679
10
-98.791957024342608
20
30.597392006221806
10
-100.59857613580161
20
17.724255060502024
42
0.41420789554961729
0
LWPOLYLINE
5
143
100
AcDbEntity
8
0
100
AcDbPolyline
90
8
70
1
43
0.0
10
-200.70087786283747
20
32.227709005223481
10
-187.82810173039795
20
34.037214801175651
42
0.41419556626421439
10
-187.40256524710847
20
34.601916474552603
10
-189.21142148223475
20
47.475810014100254
42
0.41425143528178254
10
-189.77619145387305
20
47.901367920111909
10
-202.64989615730516
20
46.090840696312782
42
0.41419961046335346
10
-203.07539335698127
20
45.526103309954671
10
-201.26560855086242
20
32.653231198253984
42
0.41420763818588108
0
LWPOLYLINE
5
144
100
AcDbEntity
8
0
100
AcDbPolyline
90
8
70
1
43
0.0
10
-47.620238927548769
20
23.915055374343805
10
-60.494893438959693
20
25.723264154009897
42
0.41419353069171005
10
-61.059570176538372
20
25.297698664835544
10
-62.868427102939002
20
12.424821633837258
42
0.41420498386103516
10
-62.442880873019178
20
11.860113070310458
10
-49.570083504424424
20
10.050882860906301
42
0.4141839104688988
10
-49.00536748662023
20
10.47637692636205
10
-47.19465341740343
20
23.35027538709841
42
0.41427182614969915
0
LWPOLYLINE
5
145
100
AcDbEntity
8
0
100
AcDbPolyline
90
8
70
1
43
0.0
10
-30.195000000000022
20
30.20370046892614
10
-30.195000000000022
20
43.205800468926142
42
0.41421356237309503
10
-30.695000000000018
20
43.705800468926142
10
-43.694000000000024
20
43.705800468926142
42
0.41421356237309503
10
-44.194000000000024
20
43.205800468926149
10
-44.194000000000024
20
30.20370046892614
42
0.41421356237309503
10
-43.694000000000024
20
29.703700468926144
10
-30.695000000000018
20
29.703700468926144
42
0.41421356237309503
0
LWPOLYLINE
5
146
100
AcDbEntity
8
0
100
AcDbPolyline
90
8
70
1
43
0.0
10
-83.372785593100062
20
34.038259722425302
10
-70.49813255436338
20
32.230329721241013
42
0.41420803439914933
10
-69.933461402704097
20
32.655931710925664
10
-68.125532954246978
20
45.528809406768687
42
0.41418426547714637
10
-68.551084104515184
20
46.093482945247089
10
-81.423880000336197
20
47.902712947657662
42
0.41420550010285723
10
-81.988601150108764
20
47.477182384943184
10
-83.798386741481579
20
34.603004687873884
42
0.41425645050079757
0
LWPOLYLINE
5
147
100
AcDbEntity
8
0
100
AcDbPolyline
90
8
70
1
43
0.0
10
-49.686159765479104
20
43.441988559452653
10
-62.559850686270337
20
45.251213847253389
42
0.41422243140927711
10
-63.12457162817865
20
44.825649048292618
10
-64.933427863308538
20
31.951755508719842
42
0.41422457223126757
10
-64.507842345349232
20
31.387046945092827
10
-51.635079995681949
20
29.578843084203591
42
0.41417863256614468
10
-51.070398342326854
20
30.004372167484163
10
-49.260613536073024
20
42.877244280145426
42
0.41422861386781579
0
LWPOLYLINE
5
148
100
AcDbEntity
8
0
100
AcDbPolyline
90
20
70
1
43
0.0
10
-122.10248755762092
20
76.977051745394448
10
-120.10529830885851
20
76.69583234765652
42
0.20356626006040296
10
-118.9063668882016
20
77.017030160808545
42
-0.20349213363735963
10
-117.7078830413131
20
77.33829093076595
10
-101.01627210085221
20
74.992831807235675
42
-0.20352501698444483
10
-99.952619557394371
20
74.353556193355203
42
0.20343670031829547
10
-98.889500276120287
20
73.714355604240751
10
-96.894617666522365
20
73.433350101658249
42
0.20366396891032235
10
-95.695199393864925
20
73.754849487655591
42
-0.20364811674686328
10
-94.495876829245702
20
74.076362352419963
10
-93.494226109653269
20
73.935328843089735
42
0.41427854098631617
10
-92.929381489504948
20
74.360842036741147
10
-91.119608015939647
20
87.234933531993505
42
0.41423439823792141
10
-91.545171885562581
20
87.799673261121541
10
-123.28387042664615
20
92.259033621693902
42
0.41420936749927412
10
-123.84857393671561
20
91.833471893378203
10
-125.65741202733503
20
78.960728908744869
42
0.41426843756320181
10
-125.23175852956611
20
78.396005280916
10
-124.22947895228909
20
78.255359531681009
42
-0.20355138967481393
10
-123.1656119482117
20
77.616153445167441
42
0.2034284027755274
0
LWPOLYLINE
5
149
100
AcDbEntity
8
0
100
AcDbPolyline
90
8
70
1
43
0.0
10
-155.60481130255744
20
19.328047607207704
10
-142.73010945990586
20
21.138584473619684
42
0.4142025237397377
10
-142.30460733537419
20
21.703322552572779
10
-144.11439361826351
20
34.576205168439593
42
0.4141985110385662
10
-144.67910887681722
20
35.001729530121338
10
-157.55288214843623
20
33.192492669011941
42
0.41420382016470253
10
-157.9784342686097
20
32.627790303186742
10
-156.16957655675296
20
19.753607682017357
42
0.41424939516006865
0
LWPOLYLINE
5
150
100
AcDbEntity
8
0
100
AcDbPolyline
90
8
70
1
43
0.0
10
-272.10200000000003
20
68.337210468926173
10
-259.10300000000001
20
68.337210468926173
42
0.41421356237309503
10
-258.60300000000001
20
68.837210468926173
10
-258.60300000000001
20
81.83661046892621
42
0.41421356237309503
10
-259.10300000000001
20
82.33661046892621
10
-272.10200000000009
20
82.33661046892621
42
0.41421356237309503
10
-272.60200000000003
20
81.83661046892621
10
-272.60200000000003
20
68.837210468926173
42
0.41421356237309503
0
LWPOLYLINE
5
151
100
AcDbEntity
8
0
100
AcDbPolyline
90
8
70
1
43
0.0
10
-170.91115551264497
20
50.552917956422633
10
-183.78392327254318
20
48.743691908425397
42
0.41417990125233894
10
-184.20947545895166
20
48.179025747909535
10
-182.40153983215441
20
35.30470407801112
42
0.41424431252552568
10
-181.83681369438398
20
34.879102289314453
10
-168.96311735952881
20
36.68832833798956
42
0.41420352909709707
10
-168.53756517022066
20
37.253030211760866
10
-170.34642937197489
20
50.127351880981415
42
0.41422650744715855
0
LWPOLYLINE
5
152
100
AcDbEntity
8
0
100
AcDbPolyline
90
8
70
1
43
0.0
10
-208.64113676392145
20
45.250301283705497
10
-221.51294289760676
20
43.440708454869409
42
0.41416986522479921
10
-221.93847587423264
20
42.876042988461556
10
-220.13054152336196
20
30.002101834203078
42
0.41424314877206286
10
-219.56581566186333
20
29.576502012811517
10
-206.69215238000805
20
31.385723416329018
42
0.41422424519665446
10
-206.2666051123939
20
31.950460310535284
10
-208.07639661143446
20
44.824772890112364
42
0.41421699132793488
0
LWPOLYLINE
5
153
100
AcDbEntity
8
0
100
AcDbPolyline
90
8
70
1
43
0.0
10
-227.57600000000011
20
43.857610468926225
10
-240.57700000000025
20
43.857610468926225
42
0.41421356237309503
10
-241.07700000000023
20
43.357610468926225
10
-241.07700000000023
20
30.355510468926241
42
0.41421356237309503
10
-240.57700000000023
20
29.855510468926241
10
-227.57600000000011
20
29.855510468926241
42
0.41421356237309503
10
-227.07600000000011
20
30.355510468926241
10
-227.07600000000011
20
43.357610468926225
42
0.41421356237309503
0
LWPOLYLINE
5
154
100
AcDbEntity
8
0
100
AcDbPolyline
90
70
70
1
43
0.0
10
-144.58320431321329
20
96.288681492305145
42
-0.034639214758425851
10
-144.27947428893174
20
96.3097487094158
10
-140.98329017678705
20
96.309748709415828
42
-0.20529421530683076
10
-140.07799695478997
20
95.921690808518861
42
0.42865437569597414
10
-133.92200304520995
20
95.921690808518875
42
-0.20529421530682809
10
-133.01670982321292
20
96.3097487094158
10
-125.80630239923245
20
96.309748709415786
42
-0.035059064367772515
10
-125.49891794637267
20
96.288168962291735
10
-54.971421840433564
20
86.336436382926223
42
0.41902331852575203
10
-52.480870950837122
20
88.24322396194529
42
-0.92010109282310848
10
-47.502264493218362
20
88.040933447649508
42
0.40180050307868281
10
-45.304257247250483
20
85.934550468926119
10
-7.3643146160193949
20
85.934550468926147
42
-0.16543911221978674
10
-6.6020566573917119
20
85.675238514936979
42
0.25364229069143401
10
-2.6018826106787891
20
85.033760389674114
42
-0.28841984187282704
10
-1.3037353143782759
20
84.73828578330442
10
-0.36611652351685264
20
83.800666992442956
42
-0.19891236737965107
10
-3.2319990864487306e-14
20
82.916783515959764
10
-1.0408340855860843e-14
20
9.0177669529663742
42
-0.19891236737965742
10
-0.36611652351682178
20
8.1338834764831969
10
-1.1918112271918764
20
7.3081887728081281
42
-0.29429256878701809
10
-2.5153958160347445
20
7.0219598906736991
42
0.27125124914256754
10
-6.7484973237907582
20
6.2939949707667857
42
-0.17682388978811492
10
-7.5538260666534462
20
6.0000000000000071
10
-11.354257247250441
20
6.0000000000000044
42
0.40180050307868598
10
-13.552264493218329
20
3.8936170212766013
42
-0.95831484749990981
10
-18.547735506781688
20
3.8936170212765999
42
0.40180050307868476
10
-20.745742752749567
20
6.0000000000000071
10
-56.322937621792761
20
6
42
-0.034876373411094584
10
-56.628732026321714
20
6.0213559762644149
10
-127.82733050936459
20
16.014788950728079
42
0.400600396302636
10
-130.29511789679898
20
14.243313616686963
42
-0.82916749594916106
10
-135.20864847984473
20
14.242836875705054
42
0.40059724715118145
10
-137.67675593188739
20
16.013836620305923
10
-208.77354408880757
20
6.0214120336405603
42
-0.034922228606352537
10
-209.07973761067547
20
5.9999999999999964
10
-260.05225724725068
20
5.9999999999999973
42
0.40180050307867549
10
-262.25026449321854
20
3.8936170212765968
42
-0.95831484749990981
10
-267.2457355067819
20
3.8936170212765915
42
0.40180050307868481
10
-269.44374275274976
20
5.9999999999999956
10
-273.41852990165046
20
5.9999999999999956
42
-0.17674941055659349
10
-274.22358243238358
20
6.2937623607281843
42
0.25721394339712589
10
-278.24615023906165
20
7.0935141005194762
42
-0.2801670494090841
10
-279.50808936324643
20
7.4010893632467356
10
-280.24088347648291
20
8.1338834764831631
42
-0.19891236737962384
10
-280.60699999999974
20
9.0177669529663884
10
-280.60699999999969
20
10.293999999999993
10
-279.99899999999968
20
10.294
42
0.99999999999999989
10
-279.99899999999968
20
13.293999999999988
10
-280.60699999999969
20
13.293999999999988
10
-280.60699999999969
20
16.04399999999999
10
-279.99899999999968
20
16.043999999999997
42
0.99999999999999989
10
-279.99899999999968
20
19.043999999999983
10
-280.60699999999969
20
19.043999999999983
10
-280.60699999999969
20
21.793999999999997
10
-279.99899999999968
20
21.794000000000004
42
0.99999999999999989
10
-279.99899999999968
20
24.793999999999986
10
-280.60699999999969
20
24.793999999999983
10
-280.60699999999969
20
82.916783515959779
42
-0.19891236737962234
10
-280.24088347648285
20
83.80066699244297
10
-279.39274362205458
20
84.648806846871182
42
-0.27426379114636606
10
-278.1570194390498
20
84.96438496511891
42
0.23980694425332161
10
-274.36805642213096
20
85.67500590489837
42
-0.16551747553625762
10
-273.60549624132352
20
85.934550468926162
10
-235.30274275274923
20
85.934550468926162
42
0.40180050307868742
10
-233.10473550678137
20
88.040933447649593
42
-0.95831484749990303
10
-228.10926449321801
20
88.040933447649579
42
0.40180050307868509
10
-225.91125724725015
20
85.934550468926162
10
-219.01543555637602
20
85.934550468926162
42
0.034639214758401086
10
-218.71170553209447
20
85.955617686036817
0
ENDSEC
0
SECTION
2
OBJECTS
0
DICTIONARY
5
C
100
AcDbDictionary
3
ACAD_GROUP
350
D
3
ACAD_MLINESTYLE
350
17
0
DICTIONARY
5
D
100
AcDbDictionary
0
DICTIONARY
5
1A
330
C
100
AcDbDictionary
0
DICTIONARY
5
17
100
AcDbDictionary
0
ENDSEC
0
EOF
